<svg width="349" height="12" viewBox="0 0 349 12" fill="none" xmlns="http://www.w3.org/2000/svg">
<path d="M0 0.216309H2.68505V11.7964H0V0.216309Z" fill="#9EA1CD"/>
<path d="M26.965 0.216309V11.7964H24.7635L18.9862 4.75926V11.7964H16.3393V0.216309H18.5535L24.3054 7.2407V0.216309H26.965Z" fill="#9EA1CD"/>
<path d="M40.632 0.216309H45.8876C47.1474 0.216309 48.2545 0.45809 49.2216 0.941653C50.1888 1.42522 50.9395 2.09966 51.474 2.96498C52.0085 3.83031 52.2757 4.84833 52.2757 6.00634C52.2757 7.16435 52.0085 8.18237 51.474 9.0477C50.9395 9.91302 50.1888 10.5875 49.2216 11.071C48.2545 11.5546 47.1474 11.7964 45.8876 11.7964H40.632V0.216309V0.216309ZM45.7603 9.59489C46.9183 9.59489 47.8473 9.27675 48.5345 8.62776C49.2216 7.97877 49.5652 7.11345 49.5652 6.00634C49.5652 4.89924 49.2216 4.03391 48.5345 3.38492C47.8473 2.73593 46.9183 2.41779 45.7603 2.41779H43.3171V9.59489H45.7603Z" fill="#9EA1CD"/>
<path d="M65.2174 0.216309H67.9024V11.7964H65.2174V0.216309Z" fill="#9EA1CD"/>
<path d="M89.3828 5.81545H91.8261V10.5111C91.2025 10.9819 90.4645 11.351 89.6373 11.6055C88.8102 11.86 87.983 11.9872 87.1432 11.9872C85.947 11.9872 84.8653 11.7327 83.8982 11.2237C82.9438 10.7147 82.1803 10.0021 81.6458 9.08587C81.0986 8.18237 80.8314 7.15161 80.8314 6.00633C80.8314 4.86105 81.0986 3.8303 81.6458 2.9268C82.193 2.0233 82.9438 1.31068 83.9236 0.788941C84.8908 0.267202 85.9851 0.0126953 87.1941 0.0126953C88.2121 0.0126953 89.1283 0.178125 89.9555 0.521709C90.7826 0.865293 91.4825 1.36158 92.0424 2.01057L90.3245 3.60124C89.4973 2.73592 88.5048 2.29053 87.334 2.29053C86.596 2.29053 85.9342 2.44324 85.3616 2.74864C84.789 3.05405 84.3436 3.48671 84.0254 4.05936C83.7073 4.61927 83.5419 5.26826 83.5419 5.99361C83.5419 6.70623 83.7073 7.35522 84.0254 7.91513C84.3436 8.47505 84.789 8.92044 85.3616 9.22584C85.9342 9.53125 86.5832 9.69668 87.3086 9.69668C88.0848 9.69668 88.772 9.53125 89.3955 9.20039V5.81545H89.3828Z" fill="#9EA1CD"/>
<path d="M107.58 11.211C106.613 10.6893 105.862 9.97664 105.315 9.07314C104.768 8.16964 104.501 7.13889 104.501 6.00633C104.501 4.87378 104.768 3.84302 105.315 2.93952C105.862 2.03603 106.613 1.31068 107.58 0.801667C108.547 0.267202 109.629 0.0126953 110.838 0.0126953C112.034 0.0126953 113.116 0.267202 114.083 0.788941C115.037 1.31068 115.801 2.0233 116.348 2.9268C116.895 3.8303 117.175 4.86105 117.175 5.99361C117.175 7.12616 116.895 8.15692 116.348 9.06042C115.801 9.96392 115.037 10.6893 114.083 11.1983C113.128 11.72 112.047 11.9745 110.838 11.9745C109.629 11.9872 108.547 11.7327 107.58 11.211ZM112.696 9.23857C113.243 8.92044 113.675 8.48777 113.994 7.92786C114.312 7.36794 114.464 6.73168 114.464 6.00633C114.464 5.29371 114.312 4.64472 113.994 4.08481C113.675 3.52489 113.243 3.0795 112.696 2.7741C112.148 2.45596 111.525 2.30326 110.838 2.30326C110.151 2.30326 109.54 2.45596 108.98 2.7741C108.433 3.09223 108 3.52489 107.682 4.08481C107.364 4.64472 107.211 5.29371 107.211 6.00633C107.211 6.71895 107.364 7.36794 107.682 7.92786C108 8.48777 108.433 8.93316 108.98 9.23857C109.527 9.5567 110.151 9.70941 110.838 9.70941C111.525 9.70941 112.136 9.54398 112.696 9.23857Z" fill="#9EA1CD"/>
<path d="M153.34 9.30224H147.97L146.94 11.7837H144.191L149.357 0.203613H152.004L157.183 11.7837H154.371L153.34 9.30224ZM152.488 7.2789L150.655 2.85048L148.823 7.2789H152.488Z" fill="#9EA1CD"/>
<path d="M176.679 11.7964L174.452 8.56413H174.324H171.996V11.7964H169.311V0.216309H174.324C175.355 0.216309 176.246 0.381738 176.997 0.725322C177.748 1.06891 178.333 1.55247 178.74 2.17601C179.147 2.79955 179.351 3.55035 179.351 4.40295C179.351 5.25555 179.147 6.00634 178.727 6.62988C178.32 7.25342 177.722 7.72426 176.971 8.05512L179.567 11.7836H176.679V11.7964ZM176.004 2.91408C175.584 2.5705 174.973 2.39234 174.172 2.39234H171.983V6.42628H174.172C174.973 6.42628 175.584 6.24812 176.004 5.89181C176.424 5.5355 176.628 5.03921 176.628 4.40295C176.628 3.76668 176.424 3.25767 176.004 2.91408Z" fill="#9EA1CD"/>
<path d="M194.609 2.39234H190.906V0.216309H200.997V2.40507H197.294V11.7964H194.609V2.39234Z" fill="#9EA1CD"/>
<path d="M230.1 11.6182C229.247 11.3637 228.56 11.0456 228.038 10.6511L228.954 8.62778C229.451 8.99682 230.036 9.2895 230.723 9.50583C231.41 9.72216 232.085 9.83669 232.772 9.83669C233.536 9.83669 234.095 9.72216 234.464 9.49311C234.833 9.26405 235.012 8.97137 235.012 8.58961C235.012 8.30965 234.91 8.08059 234.694 7.90244C234.477 7.72428 234.197 7.57158 233.866 7.46978C233.536 7.35525 233.077 7.24072 232.505 7.10074C231.627 6.89714 230.901 6.68081 230.341 6.4772C229.782 6.27359 229.298 5.93001 228.891 5.4719C228.484 5.01379 228.293 4.39024 228.293 3.614C228.293 2.93955 228.471 2.32874 228.84 1.78155C229.209 1.23436 229.756 0.801697 230.481 0.483563C231.219 0.165429 232.11 0 233.166 0C233.905 0 234.63 0.0890774 235.33 0.267232C236.03 0.445387 236.653 0.699894 237.188 1.03075L236.361 3.06681C235.292 2.45599 234.223 2.16331 233.154 2.16331C232.403 2.16331 231.856 2.29056 231.487 2.53234C231.118 2.77412 230.952 3.09226 230.952 3.48674C230.952 3.88123 231.156 4.17391 231.576 4.37752C231.996 4.58112 232.619 4.75928 233.472 4.95016C234.35 5.16649 235.075 5.3701 235.635 5.5737C236.195 5.79003 236.679 6.10817 237.086 6.56628C237.493 7.02439 237.684 7.63521 237.684 8.39873C237.684 9.06045 237.493 9.67126 237.124 10.2057C236.755 10.7529 236.195 11.1856 235.457 11.5037C234.719 11.8218 233.815 11.9873 232.759 11.9873C231.843 11.9873 230.952 11.86 230.1 11.6182Z" fill="#9EA1CD"/>
<path d="M252.662 2.39234H248.959V0.216309H259.05V2.40507H255.347V11.7964H252.662V2.39234Z" fill="#9EA1CD"/>
<path d="M272.488 10.6129C271.572 9.69672 271.101 8.38601 271.101 6.69354V0.203613H273.786V6.59174C273.786 8.66597 274.651 9.69672 276.369 9.69672C277.209 9.69672 277.845 9.44221 278.291 8.94592C278.736 8.44964 278.952 7.66066 278.952 6.59174V0.216339H281.599V6.70626C281.599 8.39873 281.141 9.70944 280.212 10.6257C279.296 11.5419 277.998 12 276.344 12C274.689 11.9873 273.404 11.5292 272.488 10.6129Z" fill="#9EA1CD"/>
<path d="M295.152 0.216309H300.407C301.667 0.216309 302.774 0.45809 303.741 0.941653C304.708 1.42522 305.459 2.09966 305.994 2.96498C306.528 3.83031 306.795 4.84833 306.795 6.00634C306.795 7.16435 306.528 8.18237 305.994 9.0477C305.459 9.91302 304.708 10.5875 303.741 11.071C302.774 11.5546 301.667 11.7964 300.407 11.7964H295.152V0.216309ZM300.28 9.59489C301.438 9.59489 302.367 9.27675 303.054 8.62776C303.741 7.97877 304.085 7.11345 304.085 6.00634C304.085 4.89924 303.741 4.03391 303.054 3.38492C302.367 2.73593 301.438 2.41779 300.28 2.41779H297.837V9.59489H300.28Z" fill="#9EA1CD"/>
<path d="M319.737 0.216309H322.422V11.7964H319.737V0.216309Z" fill="#9EA1CD"/>
<path d="M338.443 11.211C337.476 10.6893 336.725 9.97664 336.178 9.07314C335.631 8.16964 335.364 7.13889 335.364 6.00633C335.364 4.87378 335.631 3.84302 336.178 2.93952C336.725 2.03603 337.476 1.31068 338.443 0.801667C339.41 0.267202 340.492 0.0126953 341.688 0.0126953C342.884 0.0126953 343.966 0.267202 344.933 0.788941C345.888 1.31068 346.651 2.0233 347.198 2.9268C347.745 3.8303 348.025 4.86105 348.025 5.99361C348.025 7.12616 347.745 8.15692 347.198 9.06042C346.651 9.96392 345.888 10.6893 344.933 11.1983C343.979 11.72 342.897 11.9745 341.688 11.9745C340.492 11.9872 339.41 11.7327 338.443 11.211ZM343.546 9.23857C344.093 8.92044 344.526 8.48777 344.844 7.92786C345.162 7.36794 345.315 6.73168 345.315 6.00633C345.315 5.29371 345.162 4.64472 344.844 4.08481C344.526 3.52489 344.093 3.0795 343.546 2.7741C342.999 2.45596 342.375 2.30326 341.688 2.30326C341.001 2.30326 340.39 2.45596 339.83 2.7741C339.283 3.09223 338.85 3.52489 338.532 4.08481C338.214 4.64472 338.061 5.29371 338.061 6.00633C338.061 6.71895 338.214 7.36794 338.532 7.92786C338.85 8.48777 339.283 8.93316 339.83 9.23857C340.377 9.5567 341.001 9.70941 341.688 9.70941C342.375 9.70941 342.999 9.54398 343.546 9.23857Z" fill="#9EA1CD"/>
</svg>
