<svg width="24" height="24" viewBox="0 0 24 24" fill="none" xmlns="http://www.w3.org/2000/svg">
<path d="M20.896 2H3.10402C2.81125 2.00012 2.53051 2.11647 2.32349 2.32349C2.11647 2.53051 2.00012 2.81125 2 3.10402V20.896C2.00012 21.1887 2.11647 21.4695 2.32349 21.6765C2.53051 21.8835 2.81125 21.9999 3.10402 22H12V14.1429H9.60938V11.2857H12V9.00893C12 6.42589 13.7915 5.01964 16.0991 5.01964C17.2031 5.01964 18.3906 5.10268 18.6665 5.13929V7.83705H16.8281C15.5728 7.83705 15.3335 8.4308 15.3335 9.3058V11.2857H18.3246L17.9339 14.1429H15.3335V22H20.896C21.1887 21.9999 21.4695 21.8835 21.6765 21.6765C21.8835 21.4695 21.9999 21.1887 22 20.896V3.10402C21.9999 2.81125 21.8835 2.53051 21.6765 2.32349C21.4695 2.11647 21.1887 2.00012 20.896 2Z" fill="white"/>
</svg>
