<svg width="32" height="32" viewBox="0 0 32 32" fill="none" xmlns="http://www.w3.org/2000/svg">
<path fill-rule="evenodd" clip-rule="evenodd" d="M4.16669 9.49996C4.16669 8.76358 4.76364 8.16663 5.50002 8.16663H26.5C27.2364 8.16663 27.8334 8.76358 27.8334 9.49996C27.8334 10.2363 27.2364 10.8333 26.5 10.8333H5.50002C4.76364 10.8333 4.16669 10.2363 4.16669 9.49996Z" fill="#9D9EA1"/>
<path fill-rule="evenodd" clip-rule="evenodd" d="M4.16669 16C4.16669 15.2636 4.76364 14.6666 5.50002 14.6666H26.5C27.2364 14.6666 27.8334 15.2636 27.8334 16C27.8334 16.7363 27.2364 17.3333 26.5 17.3333H5.50002C4.76364 17.3333 4.16669 16.7363 4.16669 16Z" fill="#9D9EA1"/>
<path fill-rule="evenodd" clip-rule="evenodd" d="M4.16669 22.5C4.16669 21.7636 4.76364 21.1666 5.50002 21.1666H26.5C27.2364 21.1666 27.8334 21.7636 27.8334 22.5C27.8334 23.2363 27.2364 23.8333 26.5 23.8333H5.50002C4.76364 23.8333 4.16669 23.2363 4.16669 22.5Z" fill="#9D9EA1"/>
</svg>
