<svg width="24" height="24" viewBox="0 0 24 24" fill="none" xmlns="http://www.w3.org/2000/svg">
<path d="M16.1665 3.66652C17.2707 3.66982 18.3286 4.10989 19.1094 4.89064C19.8901 5.67138 20.3302 6.72935 20.3335 7.83348V16.1665C20.3302 17.2707 19.8901 18.3286 19.1094 19.1094C18.3286 19.8901 17.2707 20.3302 16.1665 20.3335H7.83348C6.72935 20.3302 5.67138 19.8901 4.89064 19.1094C4.10989 18.3286 3.66982 17.2707 3.66652 16.1665V7.83348C3.66982 6.72935 4.10989 5.67138 4.89064 4.89064C5.67138 4.10989 6.72935 3.66982 7.83348 3.66652H16.1665ZM16.1665 2H7.83348C4.625 2 2 4.625 2 7.83348V16.1665C2 19.375 4.625 22 7.83348 22H16.1665C19.375 22 22 19.375 22 16.1665V7.83348C22 4.625 19.375 2 16.1665 2Z" fill="white"/>
<path d="M17.4165 7.83346C17.1693 7.83346 16.9276 7.76015 16.722 7.6228C16.5165 7.48545 16.3563 7.29023 16.2617 7.06182C16.167 6.83341 16.1423 6.58208 16.1905 6.3396C16.2388 6.09713 16.3578 5.8744 16.5326 5.69958C16.7074 5.52477 16.9302 5.40572 17.1726 5.35748C17.4151 5.30925 17.6665 5.33401 17.8949 5.42862C18.1233 5.52323 18.3185 5.68344 18.4558 5.889C18.5932 6.09456 18.6665 6.33624 18.6665 6.58346C18.6669 6.74772 18.6348 6.91042 18.5721 7.06224C18.5094 7.21405 18.4173 7.35199 18.3012 7.46813C18.185 7.58428 18.0471 7.67634 17.8953 7.73903C17.7435 7.80172 17.5808 7.83382 17.4165 7.83346Z" fill="white"/>
<path d="M12 8.66652C12.6593 8.66652 13.3038 8.86202 13.852 9.22831C14.4002 9.5946 14.8274 10.1152 15.0797 10.7243C15.332 11.3334 15.398 12.0037 15.2694 12.6503C15.1408 13.297 14.8233 13.8909 14.3571 14.3571C13.8909 14.8233 13.297 15.1408 12.6503 15.2694C12.0037 15.3981 11.3334 15.332 10.7243 15.0797C10.1152 14.8274 9.5946 14.4002 9.22831 13.852C8.86202 13.3038 8.66652 12.6593 8.66652 12C8.66746 11.1162 9.01897 10.2689 9.64391 9.64392C10.2689 9.01897 11.1162 8.66746 12 8.66652ZM12 7C11.0111 7 10.0444 7.29324 9.22215 7.84265C8.3999 8.39206 7.75904 9.17295 7.3806 10.0866C7.00217 11.0002 6.90315 12.0055 7.09608 12.9755C7.289 13.9454 7.7652 14.8363 8.46447 15.5355C9.16373 16.2348 10.0546 16.711 11.0245 16.9039C11.9944 17.0969 12.9998 16.9978 13.9134 16.6194C14.827 16.241 15.6079 15.6001 16.1573 14.7779C16.7067 13.9556 17 12.9889 17 12C17 10.6739 16.4732 9.40215 15.5355 8.46447C14.5978 7.52678 13.3261 7 12 7Z" fill="white"/>
</svg>
