<svg width="247" height="56" viewBox="0 0 247 56" fill="none" xmlns="http://www.w3.org/2000/svg">
<path d="M6.93867 10.1631C7.68384 10.6235 8.54507 10.9566 9.52235 11.1625C10.4996 11.3684 11.5197 11.4714 12.5702 11.4714C13.6025 11.4714 14.6103 11.3684 15.5876 11.1625C16.5649 10.9566 17.4261 10.6235 18.1713 10.1631C18.9164 9.70284 19.515 9.10928 19.967 8.38248C20.419 7.65568 20.645 6.76535 20.645 5.7236C20.645 4.68185 20.419 3.79758 19.967 3.07684C19.515 2.35609 18.9164 1.7686 18.1713 1.30829C17.4261 0.847981 16.5649 0.514864 15.5876 0.308937C14.6103 0.109067 13.6025 0.00610352 12.5702 0.00610352C11.5197 0.00610352 10.4996 0.109067 9.52235 0.314994C8.54507 0.520921 7.68384 0.854038 6.93867 1.31434C6.1935 1.77465 5.59491 2.36821 5.14292 3.09501C4.69093 3.82181 4.46494 4.71214 4.46494 5.75389C4.46494 6.79563 4.69093 7.67991 5.14292 8.40065C5.59491 9.11534 6.1935 9.70889 6.93867 10.1631ZM15.0195 2.48934C15.7158 2.6347 16.3205 2.86485 16.8214 3.17374C17.249 3.43418 17.5788 3.76124 17.8353 4.16704C18.0369 4.4941 18.1407 4.94835 18.1407 5.52373C18.1407 6.11123 18.0369 6.56548 17.8231 6.91071L17.7742 6.98945C17.6704 7.15298 17.5788 7.30439 17.4933 7.43158C16.5649 4.61523 14.5675 3.07078 12.8512 2.23496C13.5903 2.25919 14.3171 2.34398 15.0195 2.48934Z" fill="#3E449C"/>
<path d="M20.9504 42.2877V14.1969H0V16.1411H4.76423V42.2877H0V44.2319H25.7146V42.2877H20.9504Z" fill="#3E449C"/>
<path d="M29.3061 42.2877H34.0704V16.1411H29.3061V14.1969H50.2565V17.6492C50.8368 16.9466 51.5392 16.3167 52.3638 15.7595C53.1884 15.2023 54.0984 14.7299 55.1002 14.3422C56.0958 13.9546 57.1647 13.6639 58.2946 13.464C59.4307 13.2641 60.5912 13.1672 61.7884 13.1672C64.256 13.1672 66.29 13.4882 67.8964 14.1242C69.5028 14.7601 70.7671 15.6686 71.6894 16.8497C72.6118 18.0307 73.2592 19.4601 73.6196 21.1378C73.9799 22.8216 74.1632 24.6931 74.1632 26.7645V42.2817H78.9274V44.2259H55.2651V42.2817H57.9892V26.7705C57.9892 24.9172 57.9343 23.403 57.8243 22.222C57.7144 21.0409 57.525 20.1203 57.2502 19.442C56.9753 18.7697 56.6149 18.2972 56.1629 18.0368C55.7109 17.7764 55.1368 17.6431 54.4466 17.6431C53.7564 17.6431 53.1517 17.7885 52.6264 18.0731C52.1011 18.3639 51.6614 18.7636 51.3071 19.2845C50.9528 19.8054 50.6902 20.4292 50.5192 21.1439C50.3481 21.8646 50.2626 22.6459 50.2626 23.4939V42.2756H52.9562V44.2198H29.3061V42.2877Z" fill="#3E449C"/>
<path d="M80.4239 29.2295C80.4239 27.0914 80.772 25.0443 81.4745 23.1062C82.1708 21.162 83.2336 19.46 84.6567 17.9943C86.0799 16.5286 87.8695 15.3597 90.0318 14.4875C92.1879 13.6153 94.7288 13.1793 97.6484 13.1793C99.6457 13.1793 101.332 13.4276 102.712 13.9182C104.092 14.4148 105.235 15.0387 106.139 15.7958V5.37827H101.405V3.43408H122.355V42.2876H127.113V44.2318H106.132V42.0757C105.387 43.0629 104.343 43.8442 103.005 44.4075C101.661 44.9768 99.8778 45.2554 97.6423 45.2554C94.7227 45.2554 92.1818 44.8254 90.0256 43.9593C87.8695 43.0932 86.0738 41.9242 84.6506 40.4525C83.2275 38.9746 82.1647 37.2727 81.4684 35.3406C80.772 33.4025 80.4239 31.3675 80.4239 29.2295ZM101.784 42.1544C102.455 42.1544 103.072 42.0151 103.634 41.7365C104.196 41.4579 104.685 41.0097 105.088 40.3858C105.497 39.762 105.821 38.9686 106.053 37.9995C106.291 37.0304 106.407 35.8433 106.407 34.4382V22.6701C106.407 21.9675 106.31 21.2286 106.108 20.4594C105.906 19.6841 105.601 18.9755 105.186 18.3274C104.77 17.6794 104.245 17.1464 103.622 16.7224C102.999 16.2985 102.266 16.0865 101.429 16.0865C100.666 16.0865 100.012 16.3166 99.4686 16.7769C98.925 17.2372 98.4791 17.9883 98.1371 19.03C97.795 20.0718 97.5385 21.4285 97.3736 23.094C97.2086 24.7596 97.1292 26.8007 97.1292 29.2295C97.1292 31.6763 97.2086 33.7235 97.3613 35.383C97.514 37.0365 97.7767 38.3629 98.1371 39.3623C98.4974 40.3616 98.98 41.0763 99.5785 41.5063C100.177 41.9363 100.916 42.1544 101.784 42.1544Z" fill="#3E449C"/>
<path d="M159.577 50.2462C159.577 49.3801 160.029 48.5382 160.927 47.7084C161.825 46.8787 163.309 46.1095 165.374 45.3887C162.509 43.8745 161.074 41.6578 161.074 38.7264C161.074 37.8603 161.208 37.0244 161.483 36.2007C161.758 35.3831 162.179 34.6139 162.747 33.8931C163.315 33.1724 164.042 32.5364 164.922 31.9792C165.801 31.422 166.84 30.9738 168.037 30.6286C166.058 29.7807 164.561 28.6965 163.547 27.3762C162.534 26.0558 162.027 24.5416 162.027 22.8276C162.027 21.5496 162.375 20.3262 163.071 19.1573C163.767 17.9883 164.824 16.9587 166.241 16.0684C167.658 15.178 169.442 14.4694 171.604 13.9485C173.766 13.4276 176.301 13.1672 179.221 13.1672C180.748 13.1672 182.165 13.2399 183.478 13.3852C184.791 13.5306 186.025 13.7365 187.167 14.003C187.747 13.0158 188.444 12.1679 189.262 11.4653C190.081 10.7627 190.972 10.1873 191.944 9.73913C192.915 9.29094 193.941 8.95782 195.034 8.73978C196.121 8.52174 197.227 8.41272 198.357 8.41272C199.139 8.41272 199.859 8.5278 200.531 8.75189C201.203 8.97599 201.79 9.27882 202.284 9.65434C202.785 10.0299 203.176 10.472 203.469 10.9747C203.756 11.4774 203.903 12.0164 203.903 12.5918C203.903 13.1672 203.756 13.7063 203.469 14.209C203.176 14.7117 202.785 15.1538 202.284 15.5293C201.784 15.9048 201.197 16.2077 200.531 16.4318C199.866 16.6559 199.133 16.7709 198.357 16.7709C197.593 16.7709 196.873 16.6559 196.195 16.4318C195.517 16.2077 194.918 15.9048 194.411 15.5293C193.904 15.1538 193.501 14.7117 193.214 14.209C192.921 13.7063 192.78 13.1672 192.78 12.5918C192.78 12.1255 192.89 11.6591 193.104 11.1867C192.322 11.5077 191.583 11.9498 190.887 12.507C190.191 13.0642 189.592 13.7486 189.103 14.5602C191.498 15.3718 193.318 16.4802 194.558 17.8914C195.798 19.3026 196.421 20.944 196.421 22.8155C196.421 24.2751 196.042 25.5955 195.278 26.7826C194.515 27.9697 193.403 28.9872 191.944 29.8291C190.484 30.677 188.682 31.3251 186.544 31.7854C184.406 32.2457 181.963 32.4759 179.227 32.4759C175.782 32.4759 172.832 32.1246 170.382 31.422C169.35 31.6219 168.629 31.9005 168.22 32.2578C167.811 32.6152 167.609 32.9846 167.609 33.3662C167.609 33.6206 167.701 33.8689 167.884 34.1233C168.067 34.3777 168.416 34.6018 168.929 34.7956C169.442 34.9894 170.156 35.159 171.066 35.2922C171.97 35.4255 173.161 35.4921 174.633 35.4921H185.573C187.57 35.4921 189.409 35.6556 191.095 35.9888C192.78 36.3219 194.24 36.873 195.462 37.6362C196.683 38.3993 197.642 39.4229 198.332 40.7008C199.023 41.9788 199.365 43.5596 199.365 45.4493C199.365 47.0664 198.998 48.5261 198.265 49.8343C197.532 51.1365 196.335 52.2509 194.674 53.1655C193.012 54.08 190.844 54.7826 188.157 55.2732C185.469 55.7577 182.189 56 178.304 56C174.933 56 172.062 55.8486 169.692 55.5397C167.322 55.2308 165.392 54.8189 163.896 54.2981C162.399 53.7772 161.306 53.1655 160.616 52.4629C159.925 51.7846 159.577 51.0396 159.577 50.2462ZM163.932 49.9736C163.932 50.2462 163.993 50.5308 164.109 50.8397C164.225 51.1425 164.464 51.4514 164.818 51.7543C165.172 52.0571 165.673 52.3478 166.314 52.6143C166.956 52.8869 167.817 53.1291 168.886 53.3411C169.955 53.5592 171.262 53.7288 172.801 53.8559C174.34 53.9831 176.185 54.0437 178.323 54.0437C180.882 54.0437 183.148 53.9347 185.127 53.7227C187.106 53.5107 188.767 53.2139 190.117 52.8445C191.467 52.475 192.493 52.0329 193.19 51.5241C193.886 51.0154 194.234 50.4581 194.234 49.8646C194.234 49.0045 193.593 48.3747 192.304 47.987C191.015 47.5994 189.158 47.4056 186.727 47.4056H175.922C174.291 47.4056 172.795 47.3147 171.433 47.133C170.071 46.9513 168.831 46.6909 167.707 46.3517C166.308 46.9271 165.331 47.5146 164.769 48.1203C164.213 48.732 163.932 49.3437 163.932 49.9736ZM179.227 30.8224C179.917 30.8224 180.491 30.671 180.955 30.3742C181.419 30.0774 181.786 29.6111 182.055 28.9691C182.33 28.3331 182.519 27.5094 182.629 26.4979C182.739 25.4925 182.794 24.2691 182.794 22.8276C182.794 21.3861 182.739 20.1687 182.629 19.1573C182.519 18.1519 182.33 17.3281 182.055 16.6861C181.78 16.0502 181.413 15.5778 180.955 15.281C180.491 14.9842 179.917 14.8328 179.227 14.8328C178.536 14.8328 177.962 14.9842 177.498 15.281C177.034 15.5778 176.667 16.0441 176.399 16.6861C176.124 17.3221 175.934 18.1458 175.812 19.1573C175.696 20.1627 175.635 21.3861 175.635 22.8276C175.635 24.2691 175.696 25.4925 175.812 26.4979C175.928 27.5034 176.124 28.3271 176.399 28.9691C176.674 29.605 177.04 30.0774 177.498 30.3742C177.962 30.671 178.536 30.8224 179.227 30.8224Z" fill="#3E449C"/>
<path d="M205.1 29.2295C205.1 26.9098 205.528 24.7657 206.377 22.8094C207.232 20.8471 208.508 19.1512 210.213 17.7218C211.917 16.2925 214.061 15.178 216.632 14.3785C219.21 13.5791 222.221 13.1793 225.666 13.1793C229.111 13.1793 232.122 13.5791 234.687 14.3785C237.253 15.178 239.39 16.2925 241.095 17.7218C242.799 19.1512 244.075 20.8471 244.93 22.8094C245.785 24.7718 246.207 26.9098 246.207 29.2295C246.207 31.5492 245.779 33.6872 244.93 35.6375C244.075 37.5877 242.799 39.2775 241.095 40.713C239.39 42.1423 237.253 43.2568 234.687 44.0562C232.122 44.8557 229.111 45.2555 225.666 45.2555C222.221 45.2555 219.21 44.8557 216.632 44.0562C214.054 43.2568 211.917 42.1423 210.213 40.713C208.508 39.2836 207.226 37.5938 206.377 35.6375C205.528 33.6812 205.1 31.5492 205.1 29.2295ZM225.672 43.5838C226.362 43.5838 226.948 43.3597 227.443 42.9115C227.932 42.4633 228.335 41.6881 228.64 40.5918C228.946 39.4956 229.172 38.0238 229.306 36.1826C229.44 34.3413 229.508 32.0216 229.508 29.2356C229.508 26.4313 229.44 24.1056 229.306 22.2583C229.172 20.417 228.946 18.9453 228.64 17.849C228.329 16.7528 227.932 15.9775 227.443 15.5293C226.955 15.0811 226.362 14.857 225.672 14.857C224.963 14.857 224.365 15.0811 223.876 15.5293C223.387 15.9775 222.984 16.7528 222.679 17.849C222.374 18.9453 222.148 20.417 222.013 22.2583C221.879 24.0995 221.812 26.4253 221.812 29.2356C221.812 32.0216 221.879 34.3413 222.013 36.1826C222.148 38.0238 222.374 39.4956 222.679 40.5918C222.984 41.6881 223.387 42.4633 223.876 42.9115C224.365 43.3597 224.963 43.5838 225.672 43.5838Z" fill="#3E449C"/>
<path d="M130.68 42.2877H135.445V16.1411H130.68V14.1969H151.631V42.2877H156.395V44.2319H130.68V42.2877Z" fill="#3E449C"/>
<path d="M137.619 10.1631C138.364 10.6234 139.225 10.9565 140.203 11.1624C141.18 11.3684 142.2 11.4713 143.251 11.4713C144.283 11.4713 145.291 11.3684 146.268 11.1624C147.245 10.9565 148.106 10.6234 148.852 10.1631C149.597 9.70279 150.195 9.10924 150.647 8.38244C151.099 7.65563 151.325 6.7653 151.325 5.72356C151.325 4.68181 151.099 3.79753 150.647 3.07679C150.195 2.35605 149.597 1.76855 148.852 1.30824C148.106 0.847934 147.245 0.514817 146.268 0.30889C145.291 0.102963 144.283 0 143.251 0C142.2 0 141.18 0.102963 140.203 0.30889C139.225 0.514817 138.364 0.847934 137.619 1.30824C136.874 1.76855 136.275 2.3621 135.823 3.0889C135.371 3.8157 135.145 4.70603 135.145 5.74778C135.145 6.78953 135.371 7.6738 135.823 8.39455C136.281 9.11529 136.88 9.70885 137.619 10.1631ZM145.7 2.48929C146.396 2.63465 147.001 2.86481 147.502 3.1737C147.929 3.43413 148.259 3.76119 148.516 4.16699C148.717 4.49405 148.821 4.9483 148.821 5.52369C148.821 6.11118 148.717 6.56543 148.504 6.91066L148.455 6.9894C148.351 7.15293 148.259 7.30435 148.174 7.43154C147.245 4.61518 145.248 3.07073 143.532 2.23491C144.277 2.25914 145.004 2.34393 145.7 2.48929Z" fill="#3E449C"/>
<path d="M33.6245 53.3714H31.0469L30.5522 54.5525H29.2328L31.7127 49.0409H32.9831L35.4691 54.5525H34.1192L33.6245 53.3714ZM33.2213 52.4024L32.3418 50.2946L31.4622 52.4024H33.2213Z" fill="#1E0856"/>
<path d="M44.8265 54.5525L43.7576 53.0141H43.6966H42.5727V54.5525H41.29V49.0409H43.6966C44.1913 49.0409 44.6189 49.1196 44.9792 49.2832C45.3396 49.4467 45.6206 49.6768 45.816 49.9736C46.0115 50.2704 46.1092 50.6277 46.1092 51.0396C46.1092 51.4515 46.0115 51.8027 45.8099 52.0995C45.6145 52.3963 45.3274 52.6204 44.967 52.7779L46.2131 54.5464H44.8265V54.5525ZM44.5028 50.331C44.3012 50.1674 44.0081 50.0826 43.6233 50.0826H42.5727V52.0026H43.6233C44.0081 52.0026 44.3012 51.9178 44.5028 51.7482C44.7044 51.5786 44.8021 51.3424 44.8021 51.0396C44.8021 50.7307 44.7044 50.4945 44.5028 50.331Z" fill="#1E0856"/>
<path d="M53.4388 50.0826H51.6614V49.0409H56.505V50.0826H54.7276V54.5525H53.4388V50.0826Z" fill="#1E0856"/>
<path d="M70.474 54.4737C70.0647 54.3526 69.7349 54.2012 69.4845 54.0134L69.9243 53.0504C70.1625 53.226 70.4434 53.3653 70.7733 53.4683C71.1031 53.5713 71.4268 53.6258 71.7567 53.6258C72.1231 53.6258 72.3919 53.5713 72.569 53.4622C72.7461 53.3532 72.8317 53.2139 72.8317 53.0322C72.8317 52.899 72.7828 52.79 72.679 52.7052C72.5751 52.6204 72.4407 52.5477 72.2819 52.4992C72.1231 52.4447 71.9032 52.3902 71.6284 52.3236C71.2069 52.2267 70.8588 52.1237 70.59 52.0268C70.3213 51.9238 70.0892 51.7664 69.8937 51.5483C69.6983 51.3303 69.6066 51.0335 69.6066 50.6641C69.6066 50.3431 69.6922 50.0523 69.8693 49.7919C70.0464 49.5315 70.3091 49.3255 70.6572 49.1741C71.0115 49.0227 71.439 48.944 71.946 48.944C72.3003 48.944 72.6484 48.9864 72.9844 49.0712C73.3203 49.156 73.6196 49.2771 73.8761 49.4346L73.4791 50.4036C72.966 50.1129 72.453 49.9736 71.9399 49.9736C71.5795 49.9736 71.3169 50.0342 71.1397 50.1492C70.9626 50.2643 70.8832 50.4157 70.8832 50.6035C70.8832 50.7913 70.9809 50.9306 71.1825 51.0275C71.3841 51.1183 71.6834 51.2092 72.0926 51.3C72.514 51.3969 72.8622 51.4999 73.131 51.5968C73.3997 51.6998 73.6318 51.8512 73.8273 52.0692C74.0227 52.2872 74.1143 52.578 74.1143 52.9414C74.1143 53.2563 74.0227 53.541 73.8456 53.8014C73.6685 54.0619 73.3997 54.2678 73.0454 54.4192C72.6912 54.5706 72.2575 54.6494 71.7505 54.6494C71.3047 54.6494 70.8832 54.5888 70.474 54.4737Z" fill="#1E0856"/>
<path d="M81.2973 50.0826H79.5199V49.0409H84.3635V50.0826H82.5861V54.5525H81.2973V50.0826Z" fill="#1E0856"/>
<path d="M90.8136 53.9953C90.3738 53.5592 90.1478 52.9353 90.1478 52.1298V49.0409H91.4366V52.0813C91.4366 53.0686 91.8519 53.5592 92.6765 53.5592C93.0796 53.5592 93.385 53.438 93.5988 53.2018C93.8126 52.9656 93.9164 52.5901 93.9164 52.0813V49.0409H95.1869V52.1298C95.1869 52.9353 94.967 53.5592 94.5211 53.9953C94.0814 54.4313 93.4583 54.6494 92.6643 54.6494C91.8764 54.6494 91.2595 54.4313 90.8136 53.9953Z" fill="#1E0856"/>
<path d="M101.698 49.0409H104.221C104.825 49.0409 105.357 49.156 105.821 49.3861C106.285 49.6163 106.645 49.9373 106.902 50.3491C107.159 50.761 107.287 51.2455 107.287 51.7967C107.287 52.3478 107.159 52.8324 106.902 53.2442C106.645 53.6561 106.285 53.9831 105.821 54.2072C105.357 54.4313 104.825 54.5525 104.221 54.5525H101.698V49.0409ZM104.16 53.5047C104.715 53.5047 105.161 53.3532 105.491 53.0444C105.821 52.7355 105.986 52.3236 105.986 51.7967C105.986 51.2698 105.821 50.8579 105.491 50.549C105.161 50.2401 104.715 50.0887 104.16 50.0887H102.987V53.5047H104.16V53.5047Z" fill="#1E0856"/>
<path d="M113.499 49.0409H114.787V54.5525H113.499V49.0409Z" fill="#1E0856"/>
<path d="M122.471 54.2799C122.007 54.0315 121.647 53.6924 121.384 53.2624C121.121 52.8323 120.993 52.3417 120.993 51.8027C120.993 51.2636 121.121 50.7731 121.384 50.343C121.647 49.913 122.007 49.5678 122.471 49.3255C122.935 49.0772 123.455 48.9561 124.029 48.9561C124.603 48.9561 125.122 49.0772 125.586 49.3255C126.044 49.5738 126.411 49.913 126.674 50.343C126.936 50.7731 127.071 51.2636 127.071 51.8027C127.071 52.3417 126.936 52.8323 126.674 53.2624C126.411 53.6924 126.044 54.0376 125.586 54.2799C125.128 54.5282 124.609 54.6493 124.029 54.6493C123.455 54.6493 122.935 54.5282 122.471 54.2799ZM124.921 53.335C125.183 53.1836 125.391 52.9777 125.544 52.7112C125.696 52.4447 125.77 52.1419 125.77 51.7966C125.77 51.4514 125.696 51.1486 125.544 50.8821C125.391 50.6156 125.183 50.4036 124.921 50.2582C124.658 50.1129 124.359 50.0341 124.029 50.0341C123.699 50.0341 123.406 50.1068 123.137 50.2582C122.874 50.4097 122.667 50.6156 122.514 50.8821C122.361 51.1486 122.288 51.4575 122.288 51.7966C122.288 52.1358 122.361 52.4447 122.514 52.7112C122.667 52.9777 122.874 53.1897 123.137 53.335C123.4 53.4864 123.699 53.5591 124.029 53.5591C124.365 53.5591 124.658 53.4864 124.921 53.335Z" fill="#1E0856"/>
</svg>
