<svg width="24" height="24" viewBox="0 0 24 24" fill="none" xmlns="http://www.w3.org/2000/svg">
<path fill-rule="evenodd" clip-rule="evenodd" d="M19.0861 4.9063C18.1616 3.98134 17.0632 3.24837 15.8543 2.74959C14.6454 2.25082 13.3497 1.99608 12.0419 2.00006C6.55356 2.00006 2.08571 6.44559 2.08348 11.9108C2.08105 13.651 2.53977 15.3608 3.41294 16.8661L2 22L7.279 20.6219C8.74026 21.4135 10.376 21.8278 12.0379 21.8272H12.0419C17.5299 21.8272 21.9973 17.3813 21.9999 11.9166C22.0033 10.6132 21.7474 9.32227 21.2471 8.11877C20.7469 6.91527 20.0123 5.82327 19.0861 4.9063ZM12.0419 20.1545H12.0384C10.5568 20.1549 9.10226 19.7584 7.82588 19.0063L7.52365 18.8277L4.39106 19.6456L5.22722 16.6058L5.03035 16.2933C4.20195 14.9818 3.76305 13.462 3.76473 11.9108C3.76473 7.36924 7.47945 3.67416 12.0451 3.67416C14.2352 3.67025 16.3373 4.53645 17.8888 6.08225C19.4404 7.62804 20.3144 9.72683 20.3187 11.917C20.3169 16.459 16.604 20.1545 12.0419 20.1545ZM16.5817 13.9853C16.333 13.8612 15.1084 13.2621 14.8817 13.1795C14.6549 13.0969 14.4875 13.0554 14.3218 13.3036C14.1562 13.5518 13.679 14.1072 13.5339 14.2746C13.3888 14.442 13.2437 14.4603 12.9951 14.3362C12.7464 14.2121 11.9442 13.9509 10.9937 13.1072C10.254 12.4505 9.75489 11.6398 9.6098 11.392C9.46471 11.1442 9.59418 11.0099 9.71873 10.8866C9.83078 10.7755 9.96739 10.5974 10.0919 10.4527C10.2165 10.3081 10.258 10.2045 10.3406 10.0393C10.4232 9.87415 10.3821 9.72951 10.3201 9.60585C10.258 9.48219 9.76025 8.26299 9.55311 7.76701C9.35087 7.28398 9.14596 7.3496 8.99328 7.34201C8.8482 7.33487 8.68079 7.33309 8.51605 7.33309C8.39012 7.33636 8.26622 7.36557 8.15208 7.41887C8.03794 7.47218 7.93601 7.54844 7.85266 7.64291C7.62454 7.89112 6.98168 8.49112 6.98168 9.70897C6.98168 10.9268 7.87454 12.1054 7.99775 12.2706C8.12097 12.4358 9.75221 14.9371 12.2482 16.0099C12.7117 16.2083 13.1852 16.3824 13.6669 16.5313C14.2629 16.7197 14.8053 16.6933 15.2339 16.6295C15.712 16.5585 16.7071 16.0304 16.9138 15.4518C17.1205 14.8732 17.1209 14.3777 17.0589 14.2746C16.9968 14.1715 16.8308 14.109 16.5817 13.9853Z" fill="white"/>
</svg>
